# xmcd
#
# Track frame offsets: 
#        150
#        20155
#        32860
#        51748
#        69261
#        85958
#        102442
#        124017
#        155444
#        171769
#        186993
#        204680
#        229995
#        252401
#        271669
#        291669
#        307526
#        335551
#
# Disc length: 4767 seconds
#
# Revision: 0
# Processed by: cddbd v1.5.2PL0 Copyright (c) Steve Scherf et al.
# Submitted via: ExactAudioCopy v1.3
#
DISCID=0f129d12
DTITLE=Various Artist - Akella Presents - vol. 143 - Electric Blues  
DTITLE=CD2
DYEAR=2018
DGENRE=Blues
TTITLE0=Jim Perry - I Think About You
TTITLE1=Paul Thorn - The Half Has Never Been Told
TTITLE2=Charles Hyde - Fool No More
TTITLE3=Russell Morris - Money Don't Grow On Trees
TTITLE4=Silver Dimes - You Don't Do That No More
TTITLE5=Big Shoes - There You Go
TTITLE6=Otis and the Elevators - Dark of the Night
TTITLE7=Mike Hammar and the Nails - Carry On
TTITLE8=Mike Goudreau - Awful Jealousy
TTITLE9=The Gamblers - Done Got Over
TTITLE10=Honey Island Swamp Band - Head High Water Blues
TTITLE11=Coyote Kings - She Got The Motion
TTITLE12=Roy Mette - Love In The First Degree
TTITLE13=Ron LaSalle - Touch Of The Blues
TTITLE14=Savoy Brown - Yesterday's Blues
TTITLE15=Freddie and the Screamers - Temporary Insanity
TTITLE16=Robben Ford - Tell Me I'm Your Man
TTITLE17=Robert Cray - You Had My Heart
EXTD=
EXTT0=
EXTT1=
EXTT2=
EXTT3=
EXTT4=
EXTT5=
EXTT6=
EXTT7=
EXTT8=
EXTT9=
EXTT10=
EXTT11=
EXTT12=
EXTT13=
EXTT14=
EXTT15=
EXTT16=
EXTT17=
PLAYORDER=
